<svg xmlns="http://www.w3.org/2000/svg" viewBox="0 0 46 46" fill="none">
  <defs>
    <radialGradient id="g" cx="35%" cy="28%" r="70%">
      <stop offset="0%" stop-color="#d4f57a"/>
      <stop offset="100%" stop-color="#88cc00"/>
    </radialGradient>
  </defs>
  <circle cx="23" cy="23" r="22" fill="url(#g)"/>
  <ellipse cx="17" cy="14" rx="8" ry="4.5" fill="rgba(255,255,255,0.28)"/>
  <path d="M15 17.5c-.5 3.2 1.1 7 4 9.9 2.9 2.9 6.6 4.5 9.9 4l.9-3.7-3-1.3-1.3 1.5c-1.3-.6-3-1.9-4.1-3-1.1-1.1-2.4-2.7-3-4.1l1.5-1.3-1.3-3-3.6.9z" fill="#1a2a0a"/>
  <path d="M27 15.5c1.6 1.6 2.4 3.8 2.2 6" stroke="#1a2a0a" stroke-width="1.8" stroke-linecap="round"/>
  <path d="M29.8 12.7c2.7 2.7 4 6.2 3.6 9.7" stroke="#1a2a0a" stroke-width="1.8" stroke-linecap="round"/>
  <circle cx="23" cy="38" r="3.5" fill="#1a2a0a"/>
  <circle cx="23" cy="38" r="2" fill="#aaee22"/>
</svg>
